<svg width="35" height="35" viewBox="0 0 35 35" fill="none" xmlns="http://www.w3.org/2000/svg">
<path d="M1.34615 10.7567H33.6538C33.8068 10.7567 34 10.8979 34 11.1591V33.5976C34 33.8588 33.8068 34 33.6538 34H1.34615C1.19317 34 1 33.8588 1 33.5976V11.1591C1 10.8979 1.19317 10.7567 1.34615 10.7567Z" stroke="#697184" stroke-width="2" stroke-linecap="round" stroke-linejoin="round"/>
<path d="M12.4612 20.2748C12.4612 21.6978 11.364 22.7808 10.0959 22.7808C8.82768 22.7808 7.73047 21.6978 7.73047 20.2748C7.73047 18.8518 8.82768 17.7688 10.0959 17.7688C11.364 17.7688 12.4612 18.8518 12.4612 20.2748Z" stroke="#697184" stroke-width="2" stroke-linecap="round" stroke-linejoin="round"/>
<mask id="path-3-inside-1_59_281" fill="white">
<path d="M8.75023 35L21.4041 23.7808C21.7601 23.4617 22.1734 23.2193 22.6199 23.0677C23.0665 22.916 23.5374 22.8581 24.0056 22.8972C24.4738 22.9363 24.9298 23.0717 25.3475 23.2956C25.7651 23.5195 26.136 23.8274 26.4387 24.2015L34.7041 34.5232M8.07715 9.75671L15.481 0.949603C15.7336 0.651152 16.0444 0.412125 16.3925 0.2484C16.7407 0.0846751 17.1183 0 17.5002 0C17.8822 0 18.2598 0.0846751 18.6079 0.2484C18.9561 0.412125 19.2668 0.651152 19.5195 0.949603L26.9233 9.75671"/>
</mask>
<path d="M7.42339 33.5035C6.5969 34.2363 6.52094 35.5003 7.25373 36.3268C7.98652 37.1533 9.25057 37.2293 10.0771 36.4965L7.42339 33.5035ZM21.4041 23.7808L22.7309 25.2773L22.7387 25.2703L21.4041 23.7808ZM26.4387 24.2015L27.9998 22.9513L27.9935 22.9434L26.4387 24.2015ZM33.1429 35.7733C33.8334 36.6355 35.092 36.7748 35.9542 36.0843C36.8164 35.3939 36.9556 34.1353 36.2652 33.2731L33.1429 35.7733ZM6.54624 8.46972C5.83546 9.31522 5.94467 10.5768 6.79017 11.2876C7.63566 11.9984 8.89727 11.8892 9.60805 11.0437L6.54624 8.46972ZM15.481 0.949603L13.9545 -0.342635L13.9501 -0.33738L15.481 0.949603ZM17.5002 0L17.5002 -2L17.5002 0ZM19.5195 0.949603L21.0504 -0.337388L21.0459 -0.342628L19.5195 0.949603ZM25.3924 11.0437C26.1032 11.8892 27.3648 11.9984 28.2103 11.2876C29.0558 10.5768 29.165 9.31522 28.4542 8.46972L25.3924 11.0437ZM10.0771 36.4965L22.7309 25.2773L20.0772 22.2843L7.42339 33.5035L10.0771 36.4965ZM22.7387 25.2703C22.8968 25.1287 23.0756 25.0251 23.2631 24.9614L21.9768 21.1739C21.2712 21.4135 20.6235 21.7947 20.0694 22.2912L22.7387 25.2703ZM23.2631 24.9614C23.4504 24.8978 23.6458 24.8741 23.8391 24.8903L24.1722 20.9042C23.4291 20.8421 22.6825 20.9342 21.9768 21.1739L23.2631 24.9614ZM23.8391 24.8903C24.0323 24.9064 24.2238 24.9625 24.4026 25.0583L26.2924 21.5329C25.6359 21.181 24.9152 20.9663 24.1722 20.9042L23.8391 24.8903ZM24.4026 25.0583C24.5816 25.1543 24.7461 25.2893 24.8839 25.4595L27.9935 22.9434C27.5258 22.3655 26.9486 21.8847 26.2924 21.5329L24.4026 25.0583ZM24.8775 25.4516L33.1429 35.7733L36.2652 33.2731L27.9998 22.9514L24.8775 25.4516ZM9.60805 11.0437L17.0119 2.23659L13.9501 -0.33738L6.54624 8.46972L9.60805 11.0437ZM17.0075 2.24183C17.0779 2.15866 17.1595 2.09783 17.2436 2.05825L15.5414 -1.56145C14.9292 -1.27358 14.3894 -0.856359 13.9545 -0.342628L17.0075 2.24183ZM17.2436 2.05825C17.3275 2.01882 17.4147 2 17.5002 2L17.5002 -2C16.8218 -2 16.1538 -1.84947 15.5414 -1.56145L17.2436 2.05825ZM17.5002 2C17.5858 2 17.6729 2.01882 17.7568 2.05825L19.4591 -1.56145C18.8466 -1.84947 18.1786 -2 17.5002 -2L17.5002 2ZM17.7568 2.05825C17.841 2.09783 17.9226 2.15866 17.993 2.24183L21.0459 -0.342628C20.611 -0.856359 20.0712 -1.27358 19.4591 -1.56145L17.7568 2.05825ZM17.9885 2.23659L25.3924 11.0437L28.4542 8.46972L21.0504 -0.33738L17.9885 2.23659Z" fill="#697184" mask="url(#path-3-inside-1_59_281)"/>
</svg>
