<svg width="50" height="50" viewBox="0 0 50 50" fill="none" xmlns="http://www.w3.org/2000/svg">
<path d="M24.7629 0C23.7392 0.133012 22.8125 1.36338 22.8125 2.97061C22.8125 3.85736 23.1034 4.63327 23.5345 5.1764L24.0625 5.81929L23.2543 5.97447C22.694 6.08532 22.2845 6.39568 21.9289 6.89448C21.5625 7.40436 21.2931 8.08715 21.1099 8.89631C20.7651 10.3484 20.6897 12.1219 20.6789 13.6958H22.5647L22.7371 16.1233C23.4698 16.0901 24.2241 16.0679 24.9892 16.0679C25.7974 16.0679 26.584 16.0901 27.3491 16.1344L27.5108 13.6958H29.2996C29.2996 12.1108 29.278 10.304 28.9655 8.82981C28.7931 8.03173 28.5345 7.33785 28.1789 6.83905C27.8233 6.34026 27.3815 6.04098 26.7457 5.94122L25.9267 5.80821L26.444 5.14315C26.8642 4.6111 27.1444 3.83519 27.1444 2.97061C27.1444 1.26362 26.1099 0 24.9784 0H24.7629ZM4.08405 15.9571C3.06034 16.0901 2.13362 17.3204 2.13362 18.9277C2.13362 19.8144 2.42457 20.5903 2.8556 21.1335L3.38362 21.7763L2.57543 21.9315C2.01509 22.0424 1.6056 22.3527 1.25 22.8515C0.883621 23.3614 0.614224 24.0486 0.431034 24.8578C0.0862069 26.3099 0.0107759 28.0834 0 29.6573H1.88578L2.39224 36.7846C3.7069 37.0949 5.10776 37.0728 6.37284 36.7846L6.83621 29.6573H8.62069C8.62069 28.0723 8.59914 26.2655 8.28664 24.7913C8.11746 23.9932 7.85884 23.2949 7.50323 22.7961C7.14871 22.2973 6.7069 21.998 6.07112 21.8983L5.24784 21.7653L5.76509 21.1002C6.18966 20.5682 6.46983 19.7922 6.46983 18.9277C6.46983 17.2207 5.43103 15.9571 4.29957 15.9571H4.08405ZM45.4634 15.9571C44.4397 16.0901 43.5129 17.3204 43.5129 18.9277C43.5129 19.8144 43.8039 20.5903 44.2349 21.1335L44.7629 21.7763L43.9547 21.9315C43.3944 22.0424 42.9849 22.3527 42.6293 22.8515C42.2629 23.3614 41.9935 24.0486 41.8103 24.8578C41.4655 26.3099 41.3901 28.0834 41.3793 29.6573H43.2651L43.7716 36.7846C45.0862 37.0949 46.4871 37.0728 47.7478 36.7846L48.2112 29.6573H50C50 28.0723 49.9784 26.2655 49.6659 24.7913C49.4935 23.9932 49.2349 23.2949 48.8793 22.7961C48.5237 22.2973 48.0819 21.998 47.4461 21.8983L46.6272 21.7653L47.1444 21.1002C47.5647 20.5682 47.8448 19.7922 47.8448 18.9277C47.8448 17.2207 46.8103 15.9571 45.6789 15.9571H45.4634ZM24.9892 18.0631C21.0345 18.0631 17.4569 18.6506 14.9461 19.5595C13.6961 20.0139 12.7155 20.5571 12.1121 21.078C11.4978 21.599 11.3039 22.0313 11.3039 22.386C11.3039 22.7407 11.4978 23.173 12.1121 23.6939C12.7155 24.2149 13.6961 24.747 14.9461 25.2125C17.4569 26.1214 21.0345 26.7089 24.9892 26.7089C28.944 26.7089 32.5216 26.1214 35.0323 25.2125C36.2823 24.747 37.2629 24.2149 37.8664 23.6939C38.4806 23.173 38.6746 22.7407 38.6746 22.386C38.6746 22.0313 38.4806 21.599 37.8664 21.078C37.2629 20.5571 36.2823 20.0139 35.0323 19.5595C32.5216 18.6506 28.944 18.0631 24.9892 18.0631ZM13.6746 26.8419V31.9185H15.6142V27.507C15.1616 27.374 14.7198 27.2409 14.2996 27.0858C14.0841 27.0082 13.8793 26.9306 13.6746 26.8419ZM36.3039 26.8419C36.0991 26.9306 35.8944 27.0082 35.6789 27.0858C35.2586 27.2409 34.8168 27.374 34.3642 27.507V31.9185H36.3039V26.8419ZM24.7629 28.9479C23.7392 29.0809 22.8125 30.3113 22.8125 31.9185C22.8125 32.8053 23.1034 33.5812 23.5345 34.1243L24.0625 34.7672L23.2543 34.9224C22.694 35.0333 22.2845 35.3436 21.9289 35.8424C21.5625 36.3523 21.2931 37.0395 21.1099 37.8487C20.7651 39.3007 20.6897 41.0742 20.6789 42.6482H22.5647L23.0711 49.7755C24.3858 50.0858 25.7866 50.0637 27.0474 49.7755L27.5108 42.6482H29.2996C29.2996 41.0632 29.278 39.2564 28.9655 37.7822C28.7931 36.9841 28.5345 36.2858 28.1789 35.787C27.8233 35.2882 27.3815 34.9889 26.7457 34.8892L25.9267 34.7561L26.444 34.0911C26.8642 33.559 27.1444 32.7831 27.1444 31.9185C27.1444 30.2116 26.1099 28.9479 24.9784 28.9479H24.7629Z" fill="#413F3D"/>
</svg>
