<svg width="35" height="35" viewBox="0 0 35 35" fill="none" xmlns="http://www.w3.org/2000/svg">
<g clip-path="url(#clip0_59_333)">
<path d="M17.279 3.92957C13.2024 3.8698 7.53985 3.95715 6.3741 7.08892L3.50964 13.8105C3.38242 13.6654 3.2159 13.5603 3.0302 13.5078L1.87693 13.1833C1.75013 13.1473 1.61746 13.1368 1.48656 13.1522C1.35565 13.1676 1.22908 13.2087 1.11411 13.2732C0.99914 13.3377 0.898038 13.4242 0.816607 13.5279C0.735176 13.6315 0.67502 13.7502 0.639593 13.8772L0.038001 16.0136C0.00202015 16.1405 -0.00855209 16.2732 0.00689211 16.4041C0.0223363 16.535 0.0634924 16.6616 0.127997 16.7766C0.192501 16.8915 0.279082 16.9926 0.382769 17.074C0.486456 17.1555 0.605205 17.2156 0.732197 17.251L1.8858 17.5754C1.92455 17.5863 1.96264 17.5899 2.00139 17.5958C1.78104 18.1452 1.64345 18.7494 1.64345 19.109V26.9208C1.64345 27.3214 1.81093 27.5066 2.07823 27.5937V29.6749C2.07788 29.8596 2.11401 30.0426 2.18454 30.2133C2.25507 30.384 2.35861 30.539 2.48923 30.6696C2.61984 30.8002 2.77495 30.9037 2.94567 30.9742C3.11638 31.0447 3.29933 31.0808 3.48403 31.0804H7.25613C7.4408 31.0807 7.62372 31.0446 7.79439 30.9741C7.96507 30.9036 8.12014 30.8001 8.25072 30.6695C8.3813 30.5389 8.48481 30.3839 8.55532 30.2132C8.62583 30.0425 8.66195 29.8596 8.6616 29.6749V27.6698H26.3383V29.6749C26.338 29.8596 26.3742 30.0426 26.4448 30.2133C26.5153 30.384 26.6189 30.5391 26.7495 30.6696C26.8802 30.8002 27.0353 30.9037 27.206 30.9742C27.3768 31.0447 27.5597 31.0808 27.7444 31.0804H31.5159C31.7006 31.0808 31.8836 31.0448 32.0544 30.9743C32.2252 30.9038 32.3804 30.8004 32.511 30.6698C32.6417 30.5392 32.7453 30.3841 32.8159 30.2134C32.8865 30.0426 32.9227 29.8597 32.9224 29.6749V27.5937C33.1893 27.5066 33.3565 27.3211 33.3565 26.9205V19.1093C33.3565 18.7497 33.2189 18.1455 32.9985 17.5961C33.0373 17.5902 33.0754 17.5863 33.1141 17.5757L34.2681 17.2513C34.395 17.2159 34.5137 17.1557 34.6174 17.0743C34.721 16.9929 34.8076 16.8918 34.8721 16.7768C34.9365 16.6618 34.9777 16.5353 34.9931 16.4043C35.0085 16.2734 34.9979 16.1408 34.9619 16.014L34.361 13.8775C34.3255 13.7505 34.2653 13.6318 34.1838 13.5282C34.1023 13.4245 34.0011 13.338 33.8861 13.2735C33.7711 13.209 33.6445 13.1679 33.5135 13.1525C33.3825 13.1371 33.2498 13.1477 33.123 13.1837L31.9697 13.5081C31.784 13.5606 31.6175 13.6658 31.4903 13.8109L28.6258 7.08925C27.3763 3.91019 21.3555 3.98999 17.279 3.93022V3.92957ZM28.9542 14.2351C29.0219 14.4368 28.8189 14.5707 28.6064 14.5832C28.6064 14.5832 27.9119 14.6423 26.9544 14.7195C26.2257 13.0168 24.5322 11.8173 22.5705 11.8173C20.418 11.8173 18.5902 13.2628 18.004 15.2311C17.8415 15.2334 17.6527 15.24 17.5016 15.24C13.7932 15.24 6.39348 14.5832 6.39348 14.5832C6.18102 14.5707 5.97808 14.4368 6.04572 14.2351C8.89574 5.54783 8.98046 6.20065 17.342 6.29194C25.7039 6.38323 25.7525 5.76259 28.9542 14.2351ZM22.5705 13.4592C23.0868 13.4574 23.5954 13.5841 24.0505 13.828C24.5056 14.0719 24.8928 14.4252 25.1772 14.8561C23.5024 14.9802 21.5748 15.1073 19.7786 15.1812C20.037 14.6623 20.4354 14.2261 20.9288 13.9218C21.4222 13.6175 21.9908 13.4572 22.5705 13.4592ZM3.29258 16.2786C3.31787 16.3158 3.34249 16.3532 3.37041 16.3896H3.26204L3.29258 16.2786ZM5.14563 18.4604C5.87923 18.4483 9.8175 19.7739 9.8175 19.7739C10.3091 19.9122 10.7422 20.8421 10.7396 21.3531C10.7324 23.0738 6.29135 22.4768 4.48887 22.4837C4.36768 22.484 4.24762 22.4604 4.13559 22.4142C4.02356 22.3679 3.92177 22.3 3.83606 22.2143C3.75035 22.1287 3.68241 22.0269 3.63614 21.9149C3.58987 21.8029 3.56619 21.6828 3.56645 21.5616V19.3828C3.56645 18.8719 4.41203 18.4726 5.14563 18.4604ZM29.855 18.4604C30.5886 18.4726 31.4341 18.8719 31.4341 19.3828V21.5616C31.4344 21.6828 31.4107 21.8029 31.3644 21.9149C31.3182 22.0269 31.2502 22.1287 31.1645 22.2143C31.0788 22.3 30.977 22.3679 30.865 22.4142C30.753 22.4604 30.6329 22.484 30.5117 22.4837C28.7089 22.4768 24.2682 23.0738 24.261 21.3531C24.2584 20.8421 24.6912 19.9122 25.1831 19.7739C25.1831 19.7739 29.1213 18.4483 29.855 18.4604Z" fill="#697184"/>
</g>
<defs>
<clipPath id="clip0_59_333">
<rect width="35" height="35" fill="white"/>
</clipPath>
</defs>
</svg>
