<svg width="50" height="50" viewBox="0 0 50 50" fill="none" xmlns="http://www.w3.org/2000/svg">
<path d="M3.41042 3.4104C1.525 3.4104 0 4.9354 0 6.81873V43.1812C0 45.0646 1.525 46.5896 3.41042 46.5896H46.5896C48.475 46.5896 50 45.0646 50 43.1812V6.81873C50 4.9354 48.475 3.4104 46.5896 3.4104H3.41042ZM4.54583 7.95415H45.4542V42.0458H39.775V39.775H29.5458V42.0458H4.54583V7.95415ZM25 17.0458C24.0958 17.0458 23.2286 17.405 22.5892 18.0444C21.9498 18.6838 21.5906 19.551 21.5906 20.4552C21.5906 21.3594 21.9498 22.2266 22.5892 22.866C23.2286 23.5054 24.0958 23.8646 25 23.8646C25.9042 23.8646 26.7714 23.5054 27.4108 22.866C28.0502 22.2266 28.4094 21.3594 28.4094 20.4552C28.4094 19.551 28.0502 18.6838 27.4108 18.0444C26.7714 17.405 25.9042 17.0458 25 17.0458ZM15.9104 21.025C14.4979 21.025 13.35 22.1708 13.35 23.5791C13.369 24.2447 13.6468 24.8767 14.1243 25.3408C14.6018 25.8049 15.2414 26.0645 15.9073 26.0645C16.5732 26.0645 17.2128 25.8049 17.6903 25.3408C18.1678 24.8767 18.4456 24.2447 18.4646 23.5791C18.4646 22.1687 17.3208 21.025 15.9104 21.025ZM34.0896 21.025C33.7479 21.0152 33.4077 21.0741 33.0892 21.1981C32.7706 21.3221 32.4802 21.5088 32.2351 21.747C31.9899 21.9853 31.7951 22.2703 31.662 22.5851C31.5289 22.9 31.4604 23.2384 31.4604 23.5802C31.4604 23.922 31.5289 24.2604 31.662 24.5753C31.7951 24.8901 31.9899 25.1751 32.2351 25.4133C32.4802 25.6516 32.7706 25.8382 33.0892 25.9623C33.4077 26.0863 33.7479 26.1452 34.0896 26.1354C34.7546 26.1164 35.3861 25.8389 35.8498 25.3617C36.3135 24.8846 36.5729 24.2455 36.5729 23.5802C36.5729 22.9149 36.3135 22.2758 35.8498 21.7986C35.3861 21.3215 34.7546 21.044 34.0896 21.025ZM25 26.1354C22.5437 26.1354 19.9729 26.9708 18.4417 28.2312C17.6221 27.9753 16.769 27.8433 15.9104 27.8396C13.1729 27.8396 10.225 29.2875 10.225 31.0875V32.9541H39.775V31.0875C39.775 29.2875 36.8271 27.8396 34.0896 27.8396C33.2354 27.8396 32.3604 27.9812 31.5583 28.2312C30.0271 26.9708 27.4562 26.1354 25 26.1354Z" fill="#413F3D"/>
</svg>
