<svg width="35" height="35" viewBox="0 0 35 35" fill="none" xmlns="http://www.w3.org/2000/svg">
<path d="M8.75 21.1458H2.1875V2.1875H32.8125V21.1458H26.25M25.5208 35C25.5208 32.1396 26.3144 29.3352 27.8133 26.899L28.4375 25.8854V25.5208H6.5625V25.8854L7.18667 26.899C8.68563 29.3352 9.47923 32.1396 9.47917 35M23.3333 21.875V16.7708C23.3333 16.7708 21.1458 15.3125 17.5 15.3125C13.8542 15.3125 11.6667 16.7708 11.6667 16.7708V21.875M17.2812 12.3958C17.2812 12.3958 14.9479 10.9375 14.9479 9.11458C14.9479 8.4385 15.2165 7.79011 15.6945 7.31205C16.1726 6.83399 16.821 6.56542 17.4971 6.56542C18.1732 6.56542 18.8216 6.83399 19.2996 7.31205C19.7777 7.79011 20.0462 8.4385 20.0462 9.11458C20.0462 10.9375 17.7187 12.3958 17.7187 12.3958H17.2812Z" stroke="#697184" stroke-width="2"/>
</svg>
