<svg width="50" height="50" viewBox="0 0 50 50" fill="none" xmlns="http://www.w3.org/2000/svg">
<path d="M10.625 5C10.1277 5 9.65081 5.19754 9.29917 5.54917C8.94754 5.90081 8.75 6.37772 8.75 6.875C8.75 7.37228 8.94754 7.84919 9.29917 8.20083C9.65081 8.55246 10.1277 8.75 10.625 8.75H38.125C38.6223 8.75 39.0992 8.55246 39.4508 8.20083C39.8025 7.84919 40 7.37228 40 6.875C40 6.37772 39.8025 5.90081 39.4508 5.54917C39.0992 5.19754 38.6223 5 38.125 5H10.625ZM10.625 41.25C10.1277 41.25 9.65081 41.4475 9.29917 41.7992C8.94754 42.1508 8.75 42.6277 8.75 43.125C8.75 43.6223 8.94754 44.0992 9.29917 44.4508C9.65081 44.8025 10.1277 45 10.625 45H38.125C38.6223 45 39.0992 44.8025 39.4508 44.4508C39.8025 44.0992 40 43.6223 40 43.125C40 42.6277 39.8025 42.1508 39.4508 41.7992C39.0992 41.4475 38.6223 41.25 38.125 41.25H10.625ZM25.7 36.95L30.7 31.95C30.8842 31.7783 31.032 31.5713 31.1345 31.3413C31.2369 31.1113 31.292 30.8631 31.2965 30.6113C31.3009 30.3595 31.2546 30.1095 31.1603 29.876C31.066 29.6425 30.9256 29.4305 30.7476 29.2524C30.5695 29.0744 30.3575 28.934 30.124 28.8397C29.8905 28.7454 29.6405 28.6991 29.3887 28.7035C29.1369 28.708 28.8887 28.7631 28.6587 28.8655C28.4287 28.968 28.2217 29.1158 28.05 29.3L26.25 31.1V18.9L28.05 20.7C28.2217 20.8842 28.4287 21.032 28.6587 21.1345C28.8887 21.2369 29.1369 21.292 29.3887 21.2965C29.6405 21.3009 29.8905 21.2546 30.124 21.1603C30.3575 21.066 30.5695 20.9256 30.7476 20.7476C30.9256 20.5695 31.066 20.3575 31.1603 20.124C31.2546 19.8905 31.3009 19.6405 31.2965 19.3887C31.292 19.1369 31.2369 18.8887 31.1345 18.6587C31.032 18.4287 30.8842 18.2217 30.7 18.05L25.7 13.05C25.3484 12.6989 24.8719 12.5016 24.375 12.5016C23.8781 12.5016 23.4016 12.6989 23.05 13.05L18.05 18.05C17.7188 18.4054 17.5385 18.8756 17.5471 19.3613C17.5556 19.8471 17.7524 20.3105 18.0959 20.6541C18.4395 20.9976 18.9029 21.1944 19.3887 21.2029C19.8744 21.2115 20.3446 21.0312 20.7 20.7L22.5 18.9V31.1L20.7 29.3C20.3446 28.9688 19.8744 28.7885 19.3887 28.7971C18.9029 28.8056 18.4395 29.0024 18.0959 29.3459C17.7524 29.6895 17.5556 30.1529 17.5471 30.6387C17.5385 31.1244 17.7188 31.5946 18.05 31.95L23.05 36.95C23.4016 37.3011 23.8781 37.4984 24.375 37.4984C24.8719 37.4984 25.3484 37.3011 25.7 36.95Z" fill="#413F3D"/>
</svg>
