<svg width="35" height="35" viewBox="0 0 35 35" fill="none" xmlns="http://www.w3.org/2000/svg">
<path d="M17.5001 11.6667L4.31672 24.8792C3.89477 25.2505 3.55343 25.7045 3.31377 26.2129C3.07412 26.7214 2.94124 27.2736 2.92335 27.8354C2.90546 28.3972 3.00293 28.9567 3.20974 29.4794C3.41655 30.0021 3.72832 30.4768 4.12579 30.8743C4.52326 31.2717 4.99798 31.5835 5.52066 31.7903C6.04333 31.9971 6.60286 32.0946 7.16468 32.0767C7.72649 32.0588 8.27868 31.9259 8.78714 31.6863C9.29559 31.4466 9.74952 31.1053 10.1209 30.6833L23.3334 17.5" stroke="#697184" stroke-width="2" stroke-linecap="round" stroke-linejoin="round"/>
<path d="M24.7917 17.5C28.8187 17.5 32.0833 14.2354 32.0833 10.2083C32.0833 6.18126 28.8187 2.91667 24.7917 2.91667C20.7646 2.91667 17.5 6.18126 17.5 10.2083C17.5 14.2354 20.7646 17.5 24.7917 17.5Z" stroke="#697184" stroke-width="2" stroke-linecap="round" stroke-linejoin="round"/>
</svg>
