<svg width="45" height="45" viewBox="0 0 45 45" fill="none" xmlns="http://www.w3.org/2000/svg">
<path d="M22.5 4C20.0377 4 17.5995 4.48498 15.3247 5.42726C13.0498 6.36953 10.9828 7.75065 9.24175 9.49175C5.72544 13.0081 3.75 17.7772 3.75 22.75C3.75 27.7228 5.72544 32.4919 9.24175 36.0083C10.9828 37.7494 13.0498 39.1305 15.3247 40.0727C17.5995 41.015 20.0377 41.5 22.5 41.5C27.4728 41.5 32.2419 39.5246 35.7583 36.0083C39.2746 32.4919 41.25 27.7228 41.25 22.75C41.25 20.2877 40.765 17.8495 39.8227 15.5747C38.8805 13.2998 37.4994 11.2328 35.7583 9.49175C34.0172 7.75065 31.9502 6.36953 29.6753 5.42726C27.4005 4.48498 24.9623 4 22.5 4ZM30.375 30.625L20.625 24.625V13.375H23.4375V23.125L31.875 28.1875L30.375 30.625Z" fill="#F2F1EF"/>
</svg>
