<svg width="50" height="50" viewBox="0 0 50 50" fill="none" xmlns="http://www.w3.org/2000/svg">
<g clip-path="url(#clip0_314_479)">
<path d="M20.8538 0.180786C17.7519 0.180786 15.5654 2.37694 15.5654 5.46925C15.5654 8.87309 18.2538 11.0866 20.8538 13.2212C21.7038 13.9192 22.5346 14.6212 23.3173 15.3846H9.61538C7.08462 15.3846 4.98269 17.0212 4.20577 19.2904C4.20577 19.2904 4.59808 23.0769 10.5769 23.0769C16.1346 23.0769 16.3404 20.25 16.3462 20.1327C16.359 19.8873 16.4663 19.6565 16.6455 19.4884C16.8247 19.3203 17.062 19.228 17.3077 19.2308C17.5601 19.239 17.8 19.3429 17.9785 19.5215C18.1571 19.7001 18.2611 19.9399 18.2692 20.1923C18.2769 20.2904 18.5481 23.0769 25 23.0769C31.4519 23.0769 31.7212 20.25 31.7308 20.1327C31.7519 19.8797 31.8699 19.6447 32.0602 19.4766C32.2504 19.3086 32.4983 19.2205 32.7519 19.2308C32.9981 19.2413 33.2304 19.3478 33.399 19.5276C33.5676 19.7073 33.6591 19.9459 33.6538 20.1923C33.6577 20.2942 33.8269 23.0769 39.4231 23.0769C45.5827 23.0769 45.7942 19.2904 45.7942 19.2904C45.0173 17.0231 42.9115 15.3846 40.3846 15.3846H26.6827C27.4722 14.6282 28.2941 13.9064 29.1462 13.2212C31.7442 11.0866 34.4346 8.87117 34.4346 5.46925C34.4346 2.37694 32.25 0.180786 29.1462 0.180786C27.3577 0.180786 25.8442 1.46156 25 2.34425C24.1596 1.45963 22.6404 0.180786 20.8538 0.180786ZM17.3654 22.5366C16.4269 23.7596 14.5038 25 10.5769 25C6.72115 25 4.80577 23.7981 3.84615 22.5962V30.7692H46.1538V22.5962C45.1942 23.7885 43.2731 25 39.4231 25C35.4808 25 33.5692 23.7558 32.6327 22.5366C31.5673 23.7539 29.3942 25 25 25C20.5904 25 18.4269 23.7596 17.3673 22.5366H17.3654ZM5.76923 32.6923C3.23846 32.6923 1.13654 34.3289 0.359615 36.5981C0.361538 36.5981 0.751923 40.3846 6.73077 40.3846C12.2885 40.3846 14.4173 37.5577 14.4231 37.4404C14.436 37.195 14.5432 36.9641 14.7224 36.796C14.9017 36.6279 15.1389 36.5357 15.3846 36.5385C15.637 36.5466 15.8769 36.6506 16.0555 36.8292C16.2341 37.0077 16.338 37.2476 16.3462 37.5C16.3538 37.5981 18.5481 40.3846 25 40.3846C31.4519 40.3846 33.6442 37.5577 33.6538 37.4404C33.675 37.1874 33.793 36.9524 33.9832 36.7843C34.1735 36.6162 34.4213 36.5282 34.675 36.5385C34.9212 36.549 35.1535 36.6555 35.3221 36.8353C35.4907 37.015 35.5822 37.2536 35.5769 37.5C35.5808 37.6019 37.6731 40.3846 43.2692 40.3846C49.4288 40.3846 49.6404 36.5981 49.6404 36.5981C48.8635 34.3308 46.7577 32.6923 44.2308 32.6923H5.76923ZM15.4442 39.8442C14.5038 41.0673 10.6577 42.3077 6.73077 42.3077C2.875 42.3077 0.959615 41.1058 0 39.9039V46.1539C0 49.3385 2.58462 50 5.76923 50H44.2308C47.4154 50 50 49.3385 50 46.1539V39.9039C49.0404 41.0962 47.1192 42.3077 43.2692 42.3077C39.3269 42.3077 35.4923 41.0635 34.5558 39.8442C33.4904 41.0616 29.3942 42.3077 25 42.3077C20.5904 42.3077 16.5038 41.0673 15.4442 39.8442Z" fill="#413F3D"/>
</g>
<defs>
<clipPath id="clip0_314_479">
<rect width="50" height="50" fill="white"/>
</clipPath>
</defs>
</svg>
