<svg width="50" height="50" viewBox="0 0 50 50" fill="none" xmlns="http://www.w3.org/2000/svg">
<path d="M8.78906 8.59375H5.85938C5.64453 8.59375 5.46875 8.76953 5.46875 8.98438V41.0156C5.46875 41.2305 5.64453 41.4062 5.85938 41.4062H8.78906C9.00391 41.4062 9.17969 41.2305 9.17969 41.0156V8.98438C9.17969 8.76953 9.00391 8.59375 8.78906 8.59375ZM44.1406 8.59375H41.2109C40.9961 8.59375 40.8203 8.76953 40.8203 8.98438V41.0156C40.8203 41.2305 40.9961 41.4062 41.2109 41.4062H44.1406C44.3555 41.4062 44.5312 41.2305 44.5312 41.0156V8.98438C44.5312 8.76953 44.3555 8.59375 44.1406 8.59375ZM38.3447 24.624L32.1143 19.707C32.0621 19.666 31.9995 19.6405 31.9336 19.6335C31.8676 19.6264 31.801 19.6381 31.7414 19.6671C31.6818 19.6962 31.6315 19.7414 31.5964 19.7977C31.5613 19.854 31.5428 19.919 31.543 19.9854V23.2422H18.457V20.1758C18.457 19.8828 18.1152 19.7168 17.8857 19.8975L11.6553 24.8193C11.6131 24.8519 11.579 24.8937 11.5555 24.9415C11.532 24.9894 11.5198 25.0419 11.5198 25.0952C11.5198 25.1485 11.532 25.2011 11.5555 25.2489C11.579 25.2967 11.6131 25.3385 11.6553 25.3711L17.8809 30.293C18.1104 30.4736 18.4521 30.3125 18.4521 30.0146V26.7578H31.5381V29.8242C31.5381 30.1172 31.8799 30.2832 32.1094 30.1025L38.335 25.1807C38.5205 25.0391 38.5205 24.7656 38.3447 24.624Z" fill="#413F3D"/>
</svg>
